<?xml version="1.0" encoding="utf-8"?>
<!-- Generator: Adobe Illustrator 26.4.1, SVG Export Plug-In . SVG Version: 6.00 Build 0)  -->
<svg version="1.1" id="Layer_1" xmlns="http://www.w3.org/2000/svg" xmlns:xlink="http://www.w3.org/1999/xlink" x="0px" y="0px"
	 viewBox="0 0 1050.8 1894.4" style="enable-background:new 0 0 1050.8 1894.4;" xml:space="preserve">
<style type="text/css">
	.st0{fill:url(#SVGID_1_);}
	.st1{fill:#FBB040;}
	.st2{opacity:0.89;fill:#CCC320;enable-background:new    ;}
	.st3{opacity:0.54;}
	.st4{fill:#D1D3D4;}
</style>
<linearGradient id="SVGID_1_" gradientUnits="userSpaceOnUse" x1="-14.5306" y1="442.6152" x2="1075.1058" y2="589.7689" gradientTransform="matrix(1 0 0 -1 0 1459.72)">
	<stop  offset="0" style="stop-color:#006CB7"/>
	<stop  offset="0.9966" style="stop-color:#005E9F"/>
</linearGradient>
<rect y="-6" class="st0" width="1050.8" height="1900.4"/>
<circle class="st1" cx="795.3" cy="264.3" r="227.4"/>
<circle class="st2" cx="782.4" cy="257.3" r="227.4"/>
<g class="st3">
	<rect x="580.4" y="574.1" class="st4" width="333.9" height="121.5"/>
	<ellipse class="st4" cx="587.4" cy="578.1" rx="123.1" ry="118.2"/>
	<path class="st4" d="M892.1,445.7c-85.9-18.8-167.8,21.6-182.9,90.3c-15,68.1,41.2,138.3,125.9,157.9c0.5-1.1,1.5-2,3-2.5
		c21.3-6.6,43.6-2.1,65.3-4.6c2.3-0.3,3.8,0.9,4.4,2.5c0.2,0,0.3,0,0.5-0.1c4.2-0.7,6.9,3.5,6.2,6.5c53.3-10.4,95.4-44.2,105.8-91.6
		C1035.4,535.5,978,464.5,892.1,445.7z"/>
	<circle class="st4" cx="734.1" cy="505" r="137.4"/>
</g>
<g class="st3">
	<rect x="390" y="252.6" class="st4" width="333.9" height="121.5"/>
	<ellipse class="st4" cx="396.9" cy="256.6" rx="123.1" ry="118.2"/>
	<path class="st4" d="M701.7,124.1c-85.9-18.8-167.8,21.6-182.9,90.3c-15,68.1,41.2,138.3,125.9,157.9c0.5-1.1,1.5-2,3-2.5
		c21.3-6.6,43.6-2.1,65.3-4.6c2.3-0.3,3.8,0.9,4.4,2.5c0.2,0,0.3,0,0.5-0.1c4.2-0.7,6.9,3.5,6.2,6.5c53.3-10.4,95.4-44.2,105.8-91.6
		C845,213.9,787.6,142.9,701.7,124.1z"/>
	<circle class="st4" cx="543.7" cy="183.4" r="137.4"/>
</g>
<g class="st3">
	<rect x="126.5" y="446.8" class="st4" width="333.9" height="121.5"/>
	<ellipse class="st4" cx="133.4" cy="450.8" rx="123.1" ry="118.2"/>
	<path class="st4" d="M438.2,318.4c-85.9-18.8-167.8,21.6-182.9,90.3c-15,68.1,41.2,138.3,125.9,157.9c0.5-1.1,1.5-2,3-2.5
		c21.3-6.6,43.6-2.1,65.3-4.6c2.3-0.3,3.8,0.9,4.4,2.5c0.2,0,0.3,0,0.5-0.1c4.2-0.7,6.9,3.5,6.2,6.5c53.3-10.4,95.4-44.2,105.8-91.6
		C581.5,408.1,524.1,337.2,438.2,318.4z"/>
	<circle class="st4" cx="280.2" cy="377.6" r="137.4"/>
</g>
</svg>
