<?xml version="1.0" encoding="utf-8"?>
<!-- Generator: Adobe Illustrator 26.4.1, SVG Export Plug-In . SVG Version: 6.00 Build 0)  -->
<svg version="1.1" id="Layer_1" xmlns="http://www.w3.org/2000/svg" xmlns:xlink="http://www.w3.org/1999/xlink" x="0px" y="0px"
	 viewBox="0 0 1050 1891.5" style="enable-background:new 0 0 1050 1891.5;" xml:space="preserve">
<style type="text/css">
	.st0{fill:url(#SVGID_1_);}
	.st1{opacity:0.54;}
	.st2{fill:#D1D3D4;}
</style>
<linearGradient id="SVGID_1_" gradientUnits="userSpaceOnUse" x1="-15.314" y1="1014.22" x2="1074.3225" y2="867.0662">
	<stop  offset="0" style="stop-color:#00AEEF"/>
	<stop  offset="0.9947" style="stop-color:#91BCE5"/>
</linearGradient>
<rect x="-0.8" y="-8.9" class="st0" width="1050.8" height="1900.4"/>
<g class="st1">
	<rect x="593.6" y="304.7" class="st2" width="333.9" height="121.5"/>
	<ellipse class="st2" cx="600.5" cy="308.7" rx="123.1" ry="118.2"/>
	<path class="st2" d="M905.3,176.3c-85.9-18.8-167.8,21.6-182.9,90.3c-15,68.1,41.2,138.3,125.9,157.9c0.5-1.1,1.5-2,3-2.5
		c21.3-6.6,43.6-2.1,65.3-4.6c2.3-0.3,3.8,0.9,4.4,2.5c0.2,0,0.3,0,0.5-0.1c4.2-0.7,6.9,3.5,6.2,6.5c53.3-10.4,95.4-44.2,105.8-91.6
		C1048.6,266,991.2,195.1,905.3,176.3z"/>
	<circle class="st2" cx="747.3" cy="235.5" r="137.4"/>
</g>
<g class="st1">
	<rect x="145.7" y="415.1" class="st2" width="333.9" height="121.5"/>
	<ellipse class="st2" cx="152.6" cy="419.1" rx="123.1" ry="118.2"/>
	<path class="st2" d="M457.4,286.7c-85.9-18.8-167.8,21.6-182.9,90.3c-15,68.1,41.2,138.3,125.9,157.9c0.5-1.1,1.5-2,3-2.5
		c21.3-6.6,43.6-2.1,65.3-4.6c2.3-0.3,3.8,0.9,4.4,2.5c0.2,0,0.3,0,0.5-0.1c4.2-0.7,6.9,3.5,6.2,6.5c53.3-10.4,95.4-44.2,105.8-91.6
		C600.6,376.4,543.3,305.5,457.4,286.7z"/>
	<circle class="st2" cx="299.3" cy="345.9" r="137.4"/>
</g>
</svg>
