<?xml version="1.0" encoding="utf-8"?>
<!-- Generator: Adobe Illustrator 26.4.1, SVG Export Plug-In . SVG Version: 6.00 Build 0)  -->
<svg version="1.1" id="Layer_1" xmlns="http://www.w3.org/2000/svg" xmlns:xlink="http://www.w3.org/1999/xlink" x="0px" y="0px"
	 viewBox="0 0 1050.8 1900.4" style="enable-background:new 0 0 1050.8 1900.4;" xml:space="preserve">
<style type="text/css">
	.st0{fill:url(#SVGID_1_);}
	.st1{fill:#FBB040;}
	.st2{fill:#FFF200;}
	.st3{opacity:0.54;}
	.st4{fill:#D1D3D4;}
</style>
<linearGradient id="SVGID_1_" gradientUnits="userSpaceOnUse" x1="-14.5306" y1="426.6152" x2="1075.1058" y2="573.7689" gradientTransform="matrix(1 0 0 -1 0 1449.72)">
	<stop  offset="0" style="stop-color:#00AEEF"/>
	<stop  offset="0.9947" style="stop-color:#B5C7E7"/>
</linearGradient>
<rect class="st0" width="1050.8" height="1900.4"/>
<circle class="st1" cx="797.3" cy="259.3" r="227.4"/>
<circle class="st2" cx="784.4" cy="252.3" r="227.4"/>
<g class="st3">
	<rect x="259.6" y="437.2" class="st4" width="333.9" height="121.5"/>
	<ellipse class="st4" cx="266.6" cy="441.2" rx="123.1" ry="118.2"/>
	<path class="st4" d="M571.4,308.7c-85.9-18.8-167.8,21.6-182.9,90.3c-15,68.1,41.2,138.3,125.9,157.9c0.5-1.1,1.5-2,3-2.5
		c21.3-6.6,43.6-2.1,65.3-4.6c2.3-0.3,3.8,0.9,4.4,2.5c0.2,0,0.3,0,0.5-0.1c4.2-0.7,6.9,3.5,6.2,6.5c53.3-10.4,95.4-44.2,105.8-91.6
		C714.6,398.5,657.3,327.6,571.4,308.7z"/>
	<circle class="st4" cx="413.4" cy="368" r="137.4"/>
</g>
</svg>
