<?xml version="1.0" encoding="utf-8"?>
<!-- Generator: Adobe Illustrator 26.4.1, SVG Export Plug-In . SVG Version: 6.00 Build 0)  -->
<svg version="1.1" id="Layer_1" xmlns="http://www.w3.org/2000/svg" xmlns:xlink="http://www.w3.org/1999/xlink" x="0px" y="0px"
	 viewBox="0 0 1000 1400" style="enable-background:new 0 0 1000 1400;" xml:space="preserve">
<style type="text/css">
	.st0{fill:url(#SVGID_1_);}
	.st1{opacity:0.54;}
	.st2{fill:#D1D3D4;}
</style>
<linearGradient id="SVGID_1_" gradientUnits="userSpaceOnUse" x1="-11.317" y1="774.746" x2="1025.9821" y2="634.6604">
	<stop  offset="0" style="stop-color:#00AEEF"/>
	<stop  offset="0.9947" style="stop-color:#B5C7E7"/>
</linearGradient>
<rect x="-22.72" y="-12.36" class="st0" width="1050.77" height="1435.38"/>
<g class="st1">
	<rect x="557.71" y="242.72" class="st2" width="333.85" height="121.54"/>
	<ellipse class="st2" cx="564.64" cy="246.72" rx="123.08" ry="118.16"/>
	<path class="st2" d="M869.42,114.29c-85.9-18.82-167.79,21.59-182.91,90.26c-14.99,68.06,41.25,138.32,125.88,157.88
		c0.53-1.12,1.5-2.05,3.01-2.52c21.29-6.58,43.57-2.06,65.33-4.61c2.32-0.27,3.78,0.87,4.41,2.47c0.16-0.03,0.32-0.05,0.48-0.08
		c4.25-0.69,6.86,3.46,6.16,6.55c53.28-10.36,95.39-44.25,105.8-91.56C1012.7,204.03,955.32,133.11,869.42,114.29z"/>
	<circle class="st2" cx="711.4" cy="173.52" r="137.37"/>
</g>
<g class="st1">
	<rect x="131.75" y="353.1" class="st2" width="333.85" height="121.54"/>
	<ellipse class="st2" cx="138.67" cy="357.1" rx="123.08" ry="118.16"/>
	<path class="st2" d="M443.46,224.67c-85.9-18.82-167.79,21.59-182.91,90.26c-14.99,68.06,41.25,138.32,125.88,157.88
		c0.53-1.12,1.5-2.05,3.01-2.52c21.29-6.58,43.57-2.06,65.33-4.61c2.32-0.27,3.78,0.87,4.41,2.47c0.16-0.03,0.32-0.05,0.48-0.08
		c4.25-0.69,6.86,3.46,6.16,6.55c53.28-10.36,95.39-44.25,105.8-91.56C586.74,314.41,529.36,243.49,443.46,224.67z"/>
	<circle class="st2" cx="285.44" cy="283.9" r="137.37"/>
</g>
</svg>
