<?xml version="1.0" encoding="utf-8"?>
<!-- Generator: Adobe Illustrator 26.4.1, SVG Export Plug-In . SVG Version: 6.00 Build 0)  -->
<svg version="1.1" id="Layer_1" xmlns="http://www.w3.org/2000/svg" xmlns:xlink="http://www.w3.org/1999/xlink" x="0px" y="0px"
	 viewBox="0 0 1050.8 1935.4" style="enable-background:new 0 0 1050.8 1935.4;" xml:space="preserve">
<style type="text/css">
	.st0{fill:url(#SVGID_1_);}
	.st1{fill:#FBB040;}
	.st2{opacity:0.69;fill:#FFF200;enable-background:new    ;}
	.st3{opacity:0.72;}
	.st4{fill:#D1D3D4;}
	.st5{opacity:0.54;}
</style>
<linearGradient id="SVGID_1_" gradientUnits="userSpaceOnUse" x1="-16.4826" y1="399.8516" x2="1077.0933" y2="547.5373" gradientTransform="matrix(1 0 0 -1 0 1440.72)">
	<stop  offset="0" style="stop-color:#0063B0"/>
	<stop  offset="0.9947" style="stop-color:#5CB1E3"/>
</linearGradient>
<rect class="st0" width="1050.8" height="1935.4"/>
<circle class="st1" cx="795.3" cy="254.8" r="227.4"/>
<circle class="st2" cx="782.4" cy="247.8" r="227.4"/>
<g class="st3">
	<rect x="501.3" y="362.1" class="st4" width="333.9" height="121.5"/>
	<ellipse class="st4" cx="508.2" cy="366.1" rx="123.1" ry="118.2"/>
	<path class="st4" d="M813,233.7c-85.9-18.8-167.8,21.6-182.9,90.3c-15,68.1,41.2,138.3,125.9,157.9c0.5-1.1,1.5-2,3-2.5
		c21.3-6.6,43.6-2.1,65.3-4.6c2.3-0.3,3.8,0.9,4.4,2.5c0.2,0,0.3,0,0.5-0.1c4.2-0.7,6.9,3.5,6.2,6.5c53.3-10.4,95.4-44.2,105.8-91.6
		C956.3,323.4,898.9,252.5,813,233.7z"/>
	<circle class="st4" cx="655" cy="292.9" r="137.4"/>
</g>
<g class="st5">
	<rect x="138.9" y="452.9" class="st4" width="333.9" height="121.5"/>
	<ellipse class="st4" cx="145.8" cy="456.9" rx="123.1" ry="118.2"/>
	<path class="st4" d="M450.6,324.5c-85.9-18.8-167.8,21.6-182.9,90.3c-15,68.1,41.2,138.3,125.9,157.9c0.5-1.1,1.5-2,3-2.5
		c21.3-6.6,43.6-2.1,65.3-4.6c2.3-0.3,3.8,0.9,4.4,2.5c0.2,0,0.3,0,0.5-0.1c4.2-0.7,6.9,3.5,6.2,6.5c53.3-10.4,95.4-44.2,105.8-91.6
		C593.9,414.2,536.5,343.3,450.6,324.5z"/>
	<circle class="st4" cx="292.6" cy="383.7" r="137.4"/>
</g>
</svg>
