<?xml version="1.0" encoding="utf-8"?>
<!-- Generator: Adobe Illustrator 26.4.1, SVG Export Plug-In . SVG Version: 6.00 Build 0)  -->
<svg version="1.1" id="Layer_1" xmlns="http://www.w3.org/2000/svg" xmlns:xlink="http://www.w3.org/1999/xlink" x="0px" y="0px"
	 viewBox="0 0 1000 1400" style="enable-background:new 0 0 1000 1400;" xml:space="preserve">
<style type="text/css">
	.st0{fill:url(#SVGID_1_);}
	.st1{opacity:0.72;}
	.st2{fill:#D1D3D4;}
	.st3{opacity:0.54;}
	.st4{opacity:0.55;}
	.st5{fill:#0092C8;}
</style>
<linearGradient id="SVGID_1_" gradientUnits="userSpaceOnUse" x1="5.4658" y1="787.105" x2="1042.7648" y2="647.0194">
	<stop  offset="0" style="stop-color:#0063B0"/>
	<stop  offset="0.9947" style="stop-color:#3F7CA0"/>
</linearGradient>
<rect x="-5.94" y="0" class="st0" width="1050.77" height="1435.38"/>
<g class="st1">
	<rect x="557.93" y="362.94" class="st2" width="333.85" height="121.54"/>
	<ellipse class="st2" cx="564.86" cy="366.94" rx="123.08" ry="118.16"/>
	<path class="st2" d="M869.64,234.52c-85.9-18.82-167.79,21.59-182.91,90.26c-14.99,68.06,41.25,138.32,125.88,157.88
		c0.53-1.12,1.5-2.05,3.01-2.52c21.29-6.58,43.57-2.06,65.33-4.61c2.32-0.27,3.78,0.87,4.41,2.47c0.16-0.03,0.32-0.05,0.48-0.08
		c4.25-0.69,6.86,3.46,6.16,6.55c53.28-10.36,95.39-44.25,105.8-91.56C1012.92,324.26,955.54,253.34,869.64,234.52z"/>
	<circle class="st2" cx="711.63" cy="293.75" r="137.37"/>
</g>
<g class="st3">
	<rect x="264.11" y="534.69" class="st2" width="333.85" height="121.54"/>
	<ellipse class="st2" cx="271.04" cy="538.69" rx="123.08" ry="118.16"/>
	<path class="st2" d="M575.82,406.26c-85.9-18.82-167.79,21.59-182.91,90.26c-14.99,68.06,41.25,138.32,125.88,157.88
		c0.53-1.11,1.5-2.05,3.01-2.52c21.29-6.58,43.57-2.06,65.33-4.61c2.32-0.27,3.78,0.87,4.41,2.47c0.16-0.03,0.32-0.05,0.48-0.08
		c4.25-0.69,6.86,3.46,6.16,6.55c53.28-10.36,95.39-44.25,105.8-91.56C719.1,496,661.72,425.08,575.82,406.26z"/>
	<circle class="st2" cx="417.8" cy="465.49" r="137.37"/>
</g>
<g class="st4">
	<rect x="116.15" y="242.45" class="st2" width="333.85" height="121.54"/>
	<ellipse class="st2" cx="123.08" cy="246.45" rx="123.08" ry="118.16"/>
	<path class="st2" d="M427.86,114.02c-85.9-18.82-167.79,21.59-182.91,90.26c-14.99,68.06,41.25,138.32,125.88,157.88
		c0.53-1.12,1.5-2.05,3.01-2.52c21.29-6.58,43.57-2.06,65.33-4.61c2.32-0.27,3.78,0.87,4.41,2.47c0.16-0.03,0.32-0.05,0.48-0.08
		c4.25-0.69,6.86,3.46,6.16,6.55c53.28-10.36,95.39-44.25,105.8-91.56C571.14,203.76,513.76,132.84,427.86,114.02z"/>
	<circle class="st2" cx="269.85" cy="173.25" r="137.37"/>
</g>
<path class="st5" d="M106.5,443.67c0,12.7-10.3,23-23,23s-23-10.3-23-23s22.67-63.83,23-63.17S106.5,430.96,106.5,443.67z"/>
<path class="st5" d="M455,727.92c0,12.7-10.3,23-23,23s-23-10.3-23-23c0-12.7,22.67-63.83,23-63.17S455,715.21,455,727.92z"/>
<path class="st5" d="M882,563.09c0,12.7-10.3,23-23,23s-23-10.3-23-23c0-12.7,22.67-63.83,23-63.17
	C859.33,500.59,882,550.38,882,563.09z"/>
<path class="st5" d="M137,603c0,12.7-10.3,23-23,23s-23-10.3-23-23s22.67-63.83,23-63.17C114.33,540.5,137,590.3,137,603z"/>
<path class="st5" d="M708,702.42c0,12.7-10.3,23-23,23s-23-10.3-23-23c0-12.7,22.67-63.83,23-63.17S708,689.71,708,702.42z"/>
<path class="st5" d="M68,568.42c0,12.7-10.3,23-23,23s-23-10.3-23-23c0-12.7,22.67-63.83,23-63.17S68,555.71,68,568.42z"/>
<path class="st5" d="M610,748.42c0,12.7-10.3,23-23,23s-23-10.3-23-23c0-12.7,22.67-63.83,23-63.17S610,735.71,610,748.42z"/>
<path class="st5" d="M312,755.09c0,12.7-10.3,23-23,23s-23-10.3-23-23c0-12.7,22.67-63.83,23-63.17
	C289.33,692.59,312,742.38,312,755.09z"/>
<path class="st5" d="M980,578.42c0,12.7-10.3,23-23,23s-23-10.3-23-23c0-12.7,22.67-63.83,23-63.17S980,565.71,980,578.42z"/>
<path class="st5" d="M790,762.42c0,12.7-10.3,23-23,23s-23-10.3-23-23c0-12.7,22.67-63.83,23-63.17S790,749.71,790,762.42z"/>
<path class="st5" d="M196,724.42c0,12.7-10.3,23-23,23s-23-10.3-23-23c0-12.7,22.67-63.83,23-63.17S196,711.71,196,724.42z"/>
<path class="st5" d="M108,776.75c0,12.7-10.3,23-23,23s-23-10.3-23-23s22.67-63.83,23-63.17C85.33,714.25,108,764.05,108,776.75z"/>
<path class="st5" d="M270.67,892.75c0,12.7-10.3,23-23,23c-12.7,0-23-10.3-23-23s22.67-63.83,23-63.17
	C248,830.25,270.67,880.05,270.67,892.75z"/>
<path class="st5" d="M429.33,846.08c0,12.7-10.3,23-23,23s-23-10.3-23-23c0-12.7,22.67-63.83,23-63.17
	C406.67,783.58,429.33,833.38,429.33,846.08z"/>
<path class="st5" d="M782.67,604.75c0,12.7-10.3,23-23,23c-12.7,0-23-10.3-23-23s22.67-63.83,23-63.17
	C760,542.25,782.67,592.05,782.67,604.75z"/>
<path class="st5" d="M881.33,702.08c0,12.7-10.3,23-23,23c-12.7,0-23-10.3-23-23c0-12.7,22.67-63.83,23-63.17
	C858.67,639.58,881.33,689.38,881.33,702.08z"/>
</svg>
