<?xml version="1.0" encoding="utf-8"?>
<!-- Generator: Adobe Illustrator 26.4.1, SVG Export Plug-In . SVG Version: 6.00 Build 0)  -->
<svg version="1.1" id="Layer_1" xmlns="http://www.w3.org/2000/svg" xmlns:xlink="http://www.w3.org/1999/xlink" x="0px" y="0px"
	 viewBox="0 0 1045.3 1898.1" style="enable-background:new 0 0 1045.3 1898.1;" xml:space="preserve">
<style type="text/css">
	.st0{fill:url(#SVGID_1_);}
	.st1{opacity:0.54;}
	.st2{fill:#D1D3D4;}
	.st3{fill:#B5B7B8;}
	.st4{opacity:0.55;}
	.st5{fill:#A2A5A6;}
	.st6{fill:#0092C8;}
	.st7{fill:#007FAE;}
	.st8{fill:#0079A7;}
</style>
<linearGradient id="SVGID_1_" gradientUnits="userSpaceOnUse" x1="-19.9726" y1="432.8257" x2="1069.6637" y2="579.9793" gradientTransform="matrix(1 0 0 -1 0 1453.62)">
	<stop  offset="0" style="stop-color:#0063B0"/>
	<stop  offset="0.9981" style="stop-color:#2A5B78"/>
</linearGradient>
<rect x="-5.4" y="-2.3" class="st0" width="1050.8" height="1900.4"/>
<g class="st1">
	<rect x="602.9" y="342.7" class="st2" width="333.9" height="121.5"/>
	<ellipse class="st2" cx="609.8" cy="346.7" rx="123.1" ry="118.2"/>
	<path class="st2" d="M914.6,214.3c-85.9-18.8-167.8,21.6-182.9,90.3c-15,68.1,41.2,138.3,125.9,157.9c0.5-1.1,1.5-2,3-2.5
		c21.3-6.6,43.6-2.1,65.3-4.6c2.3-0.3,3.8,0.9,4.4,2.5c0.2,0,0.3,0,0.5-0.1c4.2-0.7,6.9,3.5,6.2,6.5c53.3-10.4,95.4-44.2,105.8-91.6
		C1057.9,304.1,1000.5,233.1,914.6,214.3z"/>
	<circle class="st2" cx="756.6" cy="273.5" r="137.4"/>
</g>
<g class="st1">
	<rect x="281.2" y="549.9" class="st3" width="333.8" height="121.5"/>
	<ellipse class="st3" cx="288.1" cy="553.9" rx="123.1" ry="118.2"/>
	<path class="st3" d="M592.9,421.4C507,402.6,425.1,443,410,511.7c-15,68.1,41.2,138.3,125.9,157.9c0.5-1.1,1.5-2,3-2.5
		c21.3-6.6,43.6-2.1,65.3-4.6c2.3-0.3,3.8,0.9,4.4,2.5c0.2,0,0.3,0,0.5-0.1c4.2-0.7,6.9,3.5,6.2,6.5c53.3-10.4,95.4-44.2,105.8-91.6
		C736.2,511.2,678.8,440.3,592.9,421.4z"/>
	<circle class="st3" cx="434.9" cy="480.7" r="137.4"/>
</g>
<g class="st4">
	<rect x="121.9" y="233.4" class="st5" width="333.9" height="121.5"/>
	<ellipse class="st5" cx="128.8" cy="237.4" rx="123.1" ry="118.2"/>
	<path class="st5" d="M433.6,104.9c-85.9-18.8-167.8,21.6-182.9,90.3c-15,68.1,41.2,138.3,125.9,157.9c0.5-1.1,1.5-2,3-2.5
		c21.3-6.6,43.6-2.1,65.3-4.6c2.3-0.3,3.8,0.9,4.4,2.5c0.2,0,0.3,0,0.5-0.1c4.2-0.7,6.9,3.5,6.2,6.5c53.3-10.4,95.4-44.2,105.8-91.6
		C576.9,194.7,519.5,123.8,433.6,104.9z"/>
	<circle class="st5" cx="275.6" cy="164.2" r="137.4"/>
</g>
<path class="st6" d="M102.4,432.5c0,12.7-10.3,23-23,23s-23-10.3-23-23s22.7-63.8,23-63.2S102.4,419.8,102.4,432.5z"/>
<path class="st6" d="M476.9,754.7c0,12.7-10.3,23-23,23s-23-10.3-23-23s22.7-63.8,23-63.2S476.9,742,476.9,754.7z"/>
<path class="st6" d="M867.9,559.9c0,12.7-10.3,23-23,23s-23-10.3-23-23s22.7-63.8,23-63.2C845.3,497.4,867.9,547.2,867.9,559.9z"/>
<path class="st6" d="M158.9,629.8c0,12.7-10.3,23-23,23s-23-10.3-23-23s22.7-63.8,23-63.2C136.3,567.3,158.9,617.1,158.9,629.8z"/>
<path class="st6" d="M729.9,729.2c0,12.7-10.3,23-23,23s-23-10.3-23-23s22.7-63.8,23-63.2S729.9,716.5,729.9,729.2z"/>
<path class="st6" d="M89.9,595.2c0,12.7-10.3,23-23,23s-23-10.3-23-23s22.7-63.8,23-63.2S89.9,582.5,89.9,595.2z"/>
<path class="st6" d="M635.9,761.2c0,12.7-10.3,23-23,23s-23-10.3-23-23s22.7-63.8,23-63.2S635.9,748.5,635.9,761.2z"/>
<path class="st6" d="M391.9,771.9c0,12.7-10.3,23-23,23s-23-10.3-23-23s22.7-63.8,23-63.2C369.3,709.4,391.9,759.2,391.9,771.9z"/>
<path class="st7" d="M999.9,561.2c0,12.7-10.3,23-23,23s-23-10.3-23-23s22.7-63.8,23-63.2S999.9,548.5,999.9,561.2z"/>
<path class="st6" d="M811.9,789.2c0,12.7-10.3,23-23,23s-23-10.3-23-23s22.7-63.8,23-63.2S811.9,776.5,811.9,789.2z"/>
<path class="st6" d="M129.9,803.6c0,12.7-10.3,23-23,23s-23-10.3-23-23s22.7-63.8,23-63.2C107.3,741.1,129.9,790.9,129.9,803.6z"/>
<path class="st6" d="M292.6,919.6c0,12.7-10.3,23-23,23s-23-10.3-23-23s22.7-63.8,23-63.2C269.9,857.1,292.6,906.9,292.6,919.6z"/>
<path class="st6" d="M451.3,872.9c0,12.7-10.3,23-23,23s-23-10.3-23-23s22.7-63.8,23-63.2C428.6,810.4,451.3,860.2,451.3,872.9z"/>
<path class="st7" d="M790.6,615.6c0,12.7-10.3,23-23,23s-23-10.3-23-23s22.7-63.8,23-63.2C767.9,553.1,790.6,602.9,790.6,615.6z"/>
<path class="st6" d="M903.3,728.9c0,12.7-10.3,23-23,23s-23-10.3-23-23s22.7-63.8,23-63.2C880.6,666.4,903.3,716.2,903.3,728.9z"/>
<path class="st7" d="M516.9,857.3c0,17.6-10.3,31.8-23,31.8s-23-14.2-23-31.8s22.7-88.3,23-87.4S516.9,839.7,516.9,857.3z"/>
<path class="st7" d="M943.9,629.2c0,17.6-10.3,31.8-23,31.8s-23-14.2-23-31.8s22.7-88.3,23-87.4S943.9,611.6,943.9,629.2z"/>
<path class="st8" d="M593.9,875.6c0,17.6-10.3,31.8-23,31.8s-23-14.2-23-31.8s22.7-88.3,23-87.4S593.9,858,593.9,875.6z"/>
<path class="st8" d="M1009.9,738.4c0,17.6-10.3,31.8-23,31.8s-23-14.2-23-31.8s22.7-88.3,23-87.4
	C987.3,652,1009.9,720.8,1009.9,738.4z"/>
<path class="st7" d="M851.9,905c0,17.6-10.3,31.8-23,31.8s-23-14.2-23-31.8s22.7-88.3,23-87.4C829.3,818.5,851.9,887.4,851.9,905z"
	/>
<path class="st7" d="M375.3,956.7c0,17.6-10.3,31.8-23,31.8s-23-14.2-23-31.8s22.7-88.3,23-87.4
	C352.6,870.3,375.3,939.2,375.3,956.7z"/>
<path class="st7" d="M844.6,686.8c0,17.6-10.3,31.8-23,31.8s-23-14.2-23-31.8s22.7-88.3,23-87.4
	C821.9,600.4,844.6,669.3,844.6,686.8z"/>
<path class="st7" d="M943.3,821.5c0,17.6-10.3,31.8-23,31.8s-23-14.2-23-31.8s22.7-88.3,23-87.4C920.6,735,943.3,803.9,943.3,821.5z
	"/>
<path class="st7" d="M199.9,747.8c0,17.6-10.3,31.8-23,31.8s-23-14.2-23-31.8s22.7-88.3,23-87.4S199.9,730.2,199.9,747.8z"/>
<path class="st8" d="M307.9,783c0,17.6-10.3,31.8-23,31.8s-23-14.2-23-31.8s22.7-88.3,23-87.4S307.9,765.4,307.9,783z"/>
<path class="st8" d="M81.9,999.5c0,17.6-10.3,31.8-23,31.8s-23-14.2-23-31.8s22.7-88.3,23-87.4S81.9,982,81.9,999.5z"/>
<path class="st7" d="M74.6,781.4c0,17.6-10.3,31.8-23,31.8s-23-14.2-23-31.8s22.7-88.3,23-87.4C51.9,694.9,74.6,763.8,74.6,781.4z"
	/>
<path class="st7" d="M173.3,916.1c0,17.6-10.3,31.8-23,31.8s-23-14.2-23-31.8s22.7-88.3,23-87.4
	C150.6,829.6,173.3,898.5,173.3,916.1z"/>
<path class="st8" d="M89.9,595.1c0,17.6-10.3,31.8-23,31.8s-23-14.2-23-31.8s22.7-88.3,23-87.4C67.3,508.6,89.9,577.5,89.9,595.1z"
	/>
<path class="st8" d="M565.9,769.1c0,17.6-10.3,31.8-23,31.8s-23-14.2-23-31.8s22.7-88.3,23-87.4S565.9,751.5,565.9,769.1z"/>
<path class="st6" d="M709.9,871.1c0,17.6-10.3,31.8-23,31.8s-23-14.2-23-31.8s22.7-88.3,23-87.4S709.9,853.5,709.9,871.1z"/>
<path class="st6" d="M169.9,501.1c0,17.6-10.3,31.8-23,31.8s-23-14.2-23-31.8s22.7-88.3,23-87.4
	C147.3,414.6,169.9,483.5,169.9,501.1z"/>
</svg>
