<?xml version="1.0" encoding="utf-8"?>
<!-- Generator: Adobe Illustrator 26.4.1, SVG Export Plug-In . SVG Version: 6.00 Build 0)  -->
<svg version="1.1" id="Layer_1" xmlns="http://www.w3.org/2000/svg" xmlns:xlink="http://www.w3.org/1999/xlink" x="0px" y="0px"
	 viewBox="0 0 1050.8 1903.5" style="enable-background:new 0 0 1050.8 1903.5;" xml:space="preserve">
<style type="text/css">
	.st0{fill:url(#SVGID_1_);}
	.st1{fill:#FBB040;}
	.st2{fill:#FFF200;}
	.st3{opacity:0.54;}
	.st4{fill:#D1D3D4;}
</style>
<linearGradient id="SVGID_1_" gradientUnits="userSpaceOnUse" x1="-27.591" y1="398.4768" x2="1074.2762" y2="547.2822" gradientTransform="matrix(1 0 0 -1 0 1423.04)">
	<stop  offset="0" style="stop-color:#006CB7"/>
	<stop  offset="0.9947" style="stop-color:#81B9E4"/>
</linearGradient>
<rect x="-14" y="-1.9" class="st0" width="1064.8" height="1905.4"/>
<circle class="st1" cx="793.6" cy="246" r="227.4"/>
<circle class="st2" cx="780.7" cy="238.9" r="227.4"/>
<g class="st3">
	<rect x="191.5" y="371.6" class="st4" width="333.9" height="121.5"/>
	<ellipse class="st4" cx="198.5" cy="375.6" rx="123.1" ry="118.2"/>
	<path class="st4" d="M503.2,243.1c-85.9-18.8-167.8,21.6-182.9,90.3c-15,68.1,41.2,138.3,125.9,157.9c0.5-1.1,1.5-2,3-2.5
		c21.3-6.6,43.6-2.1,65.3-4.6c2.3-0.3,3.8,0.9,4.4,2.5c0.2,0,0.3,0,0.5-0.1c4.2-0.7,6.9,3.5,6.2,6.5c53.3-10.4,95.4-44.2,105.8-91.6
		C646.5,332.9,589.1,261.9,503.2,243.1z"/>
	<circle class="st4" cx="345.2" cy="302.4" r="137.4"/>
</g>
<g class="st3">
	<rect x="578.7" y="481.9" class="st4" width="333.9" height="121.5"/>
	<ellipse class="st4" cx="585.6" cy="485.9" rx="123.1" ry="118.2"/>
	<path class="st4" d="M890.4,353.5c-85.9-18.8-167.8,21.6-182.9,90.3c-15,68.1,41.2,138.3,125.9,157.9c0.5-1.1,1.5-2,3-2.5
		c21.3-6.6,43.6-2.1,65.3-4.6c2.3-0.3,3.8,0.9,4.4,2.5c0.2,0,0.3,0,0.5-0.1c4.2-0.7,6.9,3.5,6.2,6.5c53.3-10.4,95.4-44.2,105.8-91.6
		C1033.7,443.2,976.3,372.3,890.4,353.5z"/>
	<circle class="st4" cx="732.4" cy="412.7" r="137.4"/>
</g>
</svg>
