<?xml version="1.0" encoding="utf-8"?>
<!-- Generator: Adobe Illustrator 26.4.1, SVG Export Plug-In . SVG Version: 6.00 Build 0)  -->
<svg version="1.1" id="Layer_1" xmlns="http://www.w3.org/2000/svg" xmlns:xlink="http://www.w3.org/1999/xlink" x="0px" y="0px"
	 viewBox="0 0 1046.8 1903.8" style="enable-background:new 0 0 1046.8 1903.8;" xml:space="preserve">
<style type="text/css">
	.st0{fill:url(#SVGID_1_);}
	.st1{opacity:0.72;}
	.st2{fill:#D1D3D4;}
	.st3{opacity:0.54;}
	.st4{opacity:0.55;}
	.st5{fill:#0092C8;}
</style>
<linearGradient id="SVGID_1_" gradientUnits="userSpaceOnUse" x1="-14.5276" y1="425.8957" x2="1075.1086" y2="573.0493" gradientTransform="matrix(1 0 0 -1 0 1449)">
	<stop  offset="0" style="stop-color:#0063B0"/>
	<stop  offset="0.9947" style="stop-color:#3F7CA0"/>
</linearGradient>
<rect class="st0" width="1050.8" height="1900.4"/>
<g class="st1">
	<rect x="579.9" y="387.4" class="st2" width="333.9" height="121.5"/>
	<ellipse class="st2" cx="586.8" cy="391.4" rx="123.1" ry="118.2"/>
	<path class="st2" d="M891.6,259c-85.9-18.8-167.8,21.6-182.9,90.3c-15,68.1,41.2,138.3,125.9,157.9c0.5-1.1,1.5-2,3-2.5
		c21.3-6.6,43.6-2.1,65.3-4.6c2.3-0.3,3.8,0.9,4.4,2.5c0.2,0,0.3,0,0.5-0.1c4.2-0.7,6.9,3.5,6.2,6.5c53.3-10.4,95.4-44.2,105.8-91.6
		C1034.9,348.8,977.5,277.8,891.6,259z"/>
	<circle class="st2" cx="733.6" cy="318.2" r="137.4"/>
</g>
<g class="st3">
	<rect x="286" y="559.2" class="st2" width="333.8" height="121.5"/>
	<ellipse class="st2" cx="293" cy="563.2" rx="123.1" ry="118.2"/>
	<path class="st2" d="M597.8,430.8C511.9,411.9,430,452.4,414.9,521c-15,68.1,41.2,138.3,125.9,157.9c0.5-1.1,1.5-2,3-2.5
		c21.3-6.6,43.6-2.1,65.3-4.6c2.3-0.3,3.8,0.9,4.4,2.5c0.2,0,0.3,0,0.5-0.1c4.2-0.7,6.9,3.5,6.2,6.5c53.3-10.4,95.4-44.2,105.8-91.6
		C741,520.5,683.7,449.6,597.8,430.8z"/>
	<circle class="st2" cx="439.7" cy="490" r="137.4"/>
</g>
<g class="st4">
	<rect x="138.1" y="266.9" class="st2" width="333.9" height="121.5"/>
	<ellipse class="st2" cx="145" cy="270.9" rx="123.1" ry="118.2"/>
	<path class="st2" d="M449.8,138.5c-85.9-18.8-167.8,21.6-182.9,90.3c-15,68.1,41.2,138.3,125.9,157.9c0.5-1.1,1.5-2,3-2.5
		c21.3-6.6,43.6-2.1,65.3-4.6c2.3-0.3,3.8,0.9,4.4,2.5c0.2,0,0.3,0,0.5-0.1c4.2-0.7,6.9,3.5,6.2,6.5c53.3-10.4,95.4-44.2,105.8-91.6
		C593.1,228.3,535.7,157.3,449.8,138.5z"/>
	<circle class="st2" cx="291.8" cy="197.8" r="137.4"/>
</g>
<path class="st5" d="M128.4,468.2c0,12.7-10.3,23-23,23s-23-10.3-23-23s22.7-63.8,23-63.2S128.4,455.5,128.4,468.2z"/>
<path class="st5" d="M476.9,752.4c0,12.7-10.3,23-23,23s-23-10.3-23-23s22.7-63.8,23-63.2S476.9,739.7,476.9,752.4z"/>
<path class="st5" d="M903.9,587.6c0,12.7-10.3,23-23,23s-23-10.3-23-23s22.7-63.8,23-63.2C881.3,525.1,903.9,574.9,903.9,587.6z"/>
<path class="st5" d="M158.9,627.5c0,12.7-10.3,23-23,23s-23-10.3-23-23s22.7-63.8,23-63.2C136.3,565,158.9,614.8,158.9,627.5z"/>
<path class="st5" d="M729.9,726.9c0,12.7-10.3,23-23,23s-23-10.3-23-23s22.7-63.8,23-63.2S729.9,714.2,729.9,726.9z"/>
<path class="st5" d="M89.9,592.9c0,12.7-10.3,23-23,23s-23-10.3-23-23s22.7-63.8,23-63.2S89.9,580.2,89.9,592.9z"/>
<path class="st5" d="M631.9,772.9c0,12.7-10.3,23-23,23s-23-10.3-23-23s22.7-63.8,23-63.2S631.9,760.2,631.9,772.9z"/>
<path class="st5" d="M333.9,779.6c0,12.7-10.3,23-23,23s-23-10.3-23-23s22.7-63.8,23-63.2C311.3,717.1,333.9,766.9,333.9,779.6z"/>
<path class="st5" d="M1001.9,602.9c0,12.7-10.3,23-23,23s-23-10.3-23-23s22.7-63.8,23-63.2S1001.9,590.2,1001.9,602.9z"/>
<path class="st5" d="M811.9,786.9c0,12.7-10.3,23-23,23s-23-10.3-23-23s22.7-63.8,23-63.2S811.9,774.2,811.9,786.9z"/>
<path class="st5" d="M217.9,748.9c0,12.7-10.3,23-23,23s-23-10.3-23-23s22.7-63.8,23-63.2S217.9,736.2,217.9,748.9z"/>
<path class="st5" d="M129.9,801.2c0,12.7-10.3,23-23,23s-23-10.3-23-23s22.7-63.8,23-63.2C107.3,738.8,129.9,788.5,129.9,801.2z"/>
<path class="st5" d="M292.6,917.2c0,12.7-10.3,23-23,23s-23-10.3-23-23s22.7-63.8,23-63.2C269.9,854.8,292.6,904.5,292.6,917.2z"/>
<path class="st5" d="M451.3,870.6c0,12.7-10.3,23-23,23s-23-10.3-23-23s22.7-63.8,23-63.2C428.6,808.1,451.3,857.9,451.3,870.6z"/>
<path class="st5" d="M804.6,629.2c0,12.7-10.3,23-23,23s-23-10.3-23-23s22.7-63.8,23-63.2C781.9,566.8,804.6,616.5,804.6,629.2z"/>
<path class="st5" d="M903.3,726.6c0,12.7-10.3,23-23,23s-23-10.3-23-23s22.7-63.8,23-63.2C880.6,664.1,903.3,713.9,903.3,726.6z"/>
</svg>
