<?xml version="1.0" encoding="utf-8"?>
<!-- Generator: Adobe Illustrator 26.4.1, SVG Export Plug-In . SVG Version: 6.00 Build 0)  -->
<svg version="1.1" id="Layer_1" xmlns="http://www.w3.org/2000/svg" xmlns:xlink="http://www.w3.org/1999/xlink" x="0px" y="0px"
	 viewBox="0 0 1000 1400" style="enable-background:new 0 0 1000 1400;" xml:space="preserve">
<style type="text/css">
	.st0{fill:url(#SVGID_1_);}
	.st1{opacity:0.48;}
	.st2{fill:#D1D3D4;}
	.st3{opacity:0.54;}
	.st4{opacity:0.55;}
	.st5{fill:#0092C8;}
	.st6{fill:#007FAE;}
	.st7{fill:#0079A7;}
</style>
<linearGradient id="SVGID_1_" gradientUnits="userSpaceOnUse" x1="5.4658" y1="787.105" x2="1042.7648" y2="647.0194">
	<stop  offset="0" style="stop-color:#0063B0"/>
	<stop  offset="0.9981" style="stop-color:#2A5B78"/>
</linearGradient>
<rect x="-5.94" y="0" class="st0" width="1050.77" height="1435.38"/>
<g class="st1">
	<rect x="559.93" y="348.94" class="st2" width="333.85" height="121.54"/>
	<ellipse class="st2" cx="566.86" cy="352.94" rx="123.08" ry="118.16"/>
	<path class="st2" d="M871.64,220.52c-85.9-18.82-167.79,21.59-182.91,90.26c-14.99,68.06,41.25,138.32,125.88,157.88
		c0.53-1.12,1.5-2.05,3.01-2.52c21.29-6.58,43.57-2.06,65.33-4.61c2.32-0.27,3.78,0.87,4.41,2.47c0.16-0.03,0.32-0.05,0.48-0.08
		c4.25-0.69,6.86,3.46,6.16,6.55c53.28-10.36,95.39-44.25,105.8-91.56C1014.92,310.26,957.54,239.34,871.64,220.52z"/>
	<circle class="st2" cx="713.63" cy="279.75" r="137.37"/>
</g>
<g class="st3">
	<rect x="276.11" y="526.69" class="st2" width="333.85" height="121.54"/>
	<ellipse class="st2" cx="283.04" cy="530.69" rx="123.08" ry="118.16"/>
	<path class="st2" d="M587.82,398.26c-85.9-18.82-167.79,21.59-182.91,90.26c-14.99,68.06,41.25,138.32,125.88,157.88
		c0.53-1.11,1.5-2.05,3.01-2.52c21.29-6.58,43.57-2.06,65.33-4.61c2.32-0.27,3.78,0.87,4.41,2.47c0.16-0.03,0.32-0.05,0.48-0.08
		c4.25-0.69,6.86,3.46,6.16,6.55c53.28-10.36,95.39-44.25,105.8-91.56C731.1,488,673.72,417.08,587.82,398.26z"/>
	<circle class="st2" cx="429.8" cy="457.49" r="137.37"/>
</g>
<g class="st4">
	<rect x="124.15" y="224.45" class="st2" width="333.85" height="121.54"/>
	<ellipse class="st2" cx="131.08" cy="228.45" rx="123.08" ry="118.16"/>
	<path class="st2" d="M435.86,96.02c-85.9-18.82-167.79,21.59-182.91,90.26c-14.99,68.06,41.25,138.32,125.88,157.88
		c0.53-1.12,1.5-2.05,3.01-2.52c21.29-6.58,43.57-2.06,65.33-4.61c2.32-0.27,3.78,0.87,4.41,2.47c0.16-0.03,0.32-0.05,0.48-0.08
		c4.25-0.69,6.86,3.46,6.16,6.55c53.28-10.36,95.39-44.25,105.8-91.56C579.14,185.76,521.76,114.84,435.86,96.02z"/>
	<circle class="st2" cx="277.85" cy="155.25" r="137.37"/>
</g>
<path class="st5" d="M80.5,405.67c0,12.7-10.3,23-23,23s-23-10.3-23-23s22.67-63.83,23-63.17S80.5,392.96,80.5,405.67z"/>
<path class="st5" d="M455,727.92c0,12.7-10.3,23-23,23s-23-10.3-23-23c0-12.7,22.67-63.83,23-63.17S455,715.21,455,727.92z"/>
<path class="st5" d="M846,533.09c0,12.7-10.3,23-23,23s-23-10.3-23-23c0-12.7,22.67-63.83,23-63.17
	C823.33,470.59,846,520.38,846,533.09z"/>
<path class="st5" d="M137,603c0,12.7-10.3,23-23,23s-23-10.3-23-23s22.67-63.83,23-63.17C114.33,540.5,137,590.3,137,603z"/>
<path class="st5" d="M708,702.42c0,12.7-10.3,23-23,23s-23-10.3-23-23c0-12.7,22.67-63.83,23-63.17S708,689.71,708,702.42z"/>
<path class="st5" d="M68,568.42c0,12.7-10.3,23-23,23s-23-10.3-23-23c0-12.7,22.67-63.83,23-63.17S68,555.71,68,568.42z"/>
<path class="st5" d="M614,734.42c0,12.7-10.3,23-23,23s-23-10.3-23-23c0-12.7,22.67-63.83,23-63.17S614,721.71,614,734.42z"/>
<path class="st5" d="M370,745.09c0,12.7-10.3,23-23,23s-23-10.3-23-23c0-12.7,22.67-63.83,23-63.17
	C347.33,682.59,370,732.38,370,745.09z"/>
<path class="st6" d="M978,534.42c0,12.7-10.3,23-23,23s-23-10.3-23-23c0-12.7,22.67-63.83,23-63.17S978,521.71,978,534.42z"/>
<path class="st5" d="M790,762.42c0,12.7-10.3,23-23,23s-23-10.3-23-23c0-12.7,22.67-63.83,23-63.17S790,749.71,790,762.42z"/>
<path class="st5" d="M108,776.75c0,12.7-10.3,23-23,23s-23-10.3-23-23s22.67-63.83,23-63.17C85.33,714.25,108,764.05,108,776.75z"/>
<path class="st5" d="M270.67,892.75c0,12.7-10.3,23-23,23c-12.7,0-23-10.3-23-23s22.67-63.83,23-63.17
	C248,830.25,270.67,880.05,270.67,892.75z"/>
<path class="st5" d="M429.33,846.08c0,12.7-10.3,23-23,23s-23-10.3-23-23c0-12.7,22.67-63.83,23-63.17
	C406.67,783.58,429.33,833.38,429.33,846.08z"/>
<path class="st6" d="M768.67,588.75c0,12.7-10.3,23-23,23c-12.7,0-23-10.3-23-23s22.67-63.83,23-63.17
	C746,526.25,768.67,576.05,768.67,588.75z"/>
<path class="st5" d="M881.33,702.08c0,12.7-10.3,23-23,23c-12.7,0-23-10.3-23-23c0-12.7,22.67-63.83,23-63.17
	C858.67,639.58,881.33,689.38,881.33,702.08z"/>
<path class="st6" d="M495,830.45c0,17.57-10.3,31.82-23,31.82s-23-14.25-23-31.82s22.67-88.31,23-87.39
	C472.33,743.98,495,812.87,495,830.45z"/>
<path class="st6" d="M922,602.4c0,17.57-10.3,31.82-23,31.82s-23-14.25-23-31.82c0-17.57,22.67-88.31,23-87.39
	C899.33,515.93,922,584.83,922,602.4z"/>
<path class="st7" d="M572,848.79c0,17.57-10.3,31.82-23,31.82s-23-14.25-23-31.82c0-17.57,22.67-88.31,23-87.39
	S572,831.22,572,848.79z"/>
<path class="st7" d="M988,711.61c0,17.57-10.3,31.82-23,31.82s-23-14.25-23-31.82s22.67-88.31,23-87.39
	C965.33,625.14,988,694.04,988,711.61z"/>
<path class="st6" d="M830,878.18c0,17.57-10.3,31.82-23,31.82s-23-14.25-23-31.82s22.67-88.31,23-87.39
	C807.33,791.71,830,860.6,830,878.18z"/>
<path class="st6" d="M353.33,929.93c0,17.57-10.3,31.82-23,31.82s-23-14.25-23-31.82s22.67-88.31,23-87.39
	C330.67,843.46,353.33,912.36,353.33,929.93z"/>
<path class="st6" d="M822.67,660.04c0,17.57-10.3,31.82-23,31.82c-12.7,0-23-14.25-23-31.82s22.67-88.31,23-87.39
	C800,573.57,822.67,642.47,822.67,660.04z"/>
<path class="st6" d="M921.33,794.71c0,17.57-10.3,31.82-23,31.82c-12.7,0-23-14.25-23-31.82c0-17.57,22.67-88.31,23-87.39
	C898.67,708.24,921.33,777.13,921.33,794.71z"/>
<path class="st6" d="M178,720.94c0,17.57-10.3,31.82-23,31.82s-23-14.25-23-31.82s22.67-88.31,23-87.39S178,703.37,178,720.94z"/>
<path class="st7" d="M286,756.15c0,17.57-10.3,31.82-23,31.82s-23-14.25-23-31.82s22.67-88.31,23-87.39S286,738.58,286,756.15z"/>
<path class="st7" d="M60,972.72c0,17.57-10.3,31.82-23,31.82s-23-14.25-23-31.82s22.67-88.31,23-87.39S60,955.14,60,972.72z"/>
<path class="st6" d="M52.67,754.58c0,17.57-10.3,31.82-23,31.82s-23-14.25-23-31.82c0-17.57,22.67-88.31,23-87.39
	C30,668.11,52.67,737.01,52.67,754.58z"/>
<path class="st6" d="M151.33,889.25c0,17.57-10.3,31.82-23,31.82c-12.7,0-23-14.25-23-31.82s22.67-88.31,23-87.39
	C128.67,802.78,151.33,871.67,151.33,889.25z"/>
<path class="st7" d="M68,568.25c0,17.57-10.3,31.82-23,31.82s-23-14.25-23-31.82s22.67-88.31,23-87.39
	C45.33,481.78,68,550.67,68,568.25z"/>
<path class="st7" d="M544,742.25c0,17.57-10.3,31.82-23,31.82c-12.7,0-23-14.25-23-31.82s22.67-88.31,23-87.39
	S544,724.67,544,742.25z"/>
<path class="st5" d="M688,844.25c0,17.57-10.3,31.82-23,31.82s-23-14.25-23-31.82s22.67-88.31,23-87.39S688,826.67,688,844.25z"/>
<path class="st5" d="M148,474.25c0,17.57-10.3,31.82-23,31.82s-23-14.25-23-31.82s22.67-88.31,23-87.39
	C125.33,387.78,148,456.67,148,474.25z"/>
</svg>
