<?xml version="1.0" encoding="iso-8859-1"?>
<!-- Generator: Adobe Illustrator 18.0.0, SVG Export Plug-In . SVG Version: 6.00 Build 0)  -->
<!DOCTYPE svg PUBLIC "-//W3C//DTD SVG 1.1//EN" "http://www.w3.org/Graphics/SVG/1.1/DTD/svg11.dtd">
<svg version="1.1" id="Capa_1" xmlns="http://www.w3.org/2000/svg" xmlns:xlink="http://www.w3.org/1999/xlink" x="0px" y="0px"
	 viewBox="0 0 298.62 298.62" style="enable-background:new 0 0 298.62 298.62;" xml:space="preserve">
<g>
	<g>
		<path style="fill:none;" d="M105.361,68.283H88.877c-2.76,0-4.999-2.238-4.999-4.999c0-2.76,2.239-4.999,4.999-4.999h16.484
			V32.102c0-12.188-9.914-22.104-22.102-22.104s-22.102,9.916-22.102,22.104v46.124h44.205V68.283z"/>
		<g>
			<path style="fill:#FDBD1D;" d="M207.524,76.843c0.586,0.347,1.156,0.717,1.706,1.114C208.679,77.56,208.11,77.189,207.524,76.843
				z"/>
			<path style="fill:#FDBD1D;" d="M204.732,75.426c0.798,0.332,1.572,0.711,2.321,1.13
				C206.303,76.138,205.531,75.758,204.732,75.426z"/>
			<path style="fill:#FDBD1D;" d="M173.949,98.794c-0.105-0.88-0.176-1.771-0.176-2.679
				C173.773,97.022,173.843,97.913,173.949,98.794z"/>
			<path style="fill:#FDBD1D;" d="M199.636,74.014c0.629,0.099,1.25,0.221,1.86,0.371C200.885,74.234,200.265,74.112,199.636,74.014
				z"/>
			<path style="fill:#FDBD1D;" d="M213.526,81.983c-0.552-0.677-1.148-1.316-1.774-1.924
				C212.377,80.668,212.974,81.306,213.526,81.983z"/>
			<path style="fill:#FDBD1D;" d="M209.802,78.385c0.538,0.415,1.056,0.854,1.554,1.316C210.858,79.24,210.341,78.8,209.802,78.385z
				"/>
			<path style="fill:#FDBD1D;" d="M213.579,82.054c0.516,0.639,0.991,1.312,1.436,2.005
				C214.569,83.365,214.095,82.692,213.579,82.054z"/>
			<path style="fill:#FDBD1D;" d="M196.17,73.718c0.908,0,1.799,0.07,2.679,0.176C197.968,73.788,197.078,73.718,196.17,73.718z"/>
			<path style="fill:#FDBD1D;" d="M202.291,74.589c0.685,0.195,1.357,0.423,2.014,0.681
				C203.648,75.012,202.977,74.785,202.291,74.589z"/>
			<path style="fill:#FDBD1D;" d="M180.116,111.697c0.608,0.626,1.246,1.221,1.922,1.773
				C181.362,112.918,180.723,112.322,180.116,111.697z"/>
			<path style="fill:#FDBD1D;" d="M179.755,111.3c-0.461-0.497-0.899-1.014-1.313-1.552
				C178.856,110.286,179.294,110.802,179.755,111.3z"/>
			<path style="fill:#FDBD1D;" d="M184.115,114.96c-0.692-0.445-1.365-0.919-2.002-1.434
				C182.75,114.042,183.422,114.515,184.115,114.96z"/>
			<path style="fill:#FDBD1D;" d="M215.127,84.244c-3.433-2.141-7.48-3.385-11.816-3.385c-12.35,0-22.397,10.047-22.397,22.397
				c0,4.335,1.244,8.383,3.385,11.816c3.446,2.166,7.508,3.439,11.87,3.439c12.35,0,22.397-10.047,22.397-22.397
				C218.566,91.752,217.293,87.69,215.127,84.244z"/>
			<path style="fill:#FDBD1D;" d="M176.612,106.998c-0.419-0.749-0.798-1.523-1.13-2.322
				C175.814,105.476,176.193,106.249,176.612,106.998z"/>
			<path style="fill:#FDBD1D;" d="M175.326,104.251c-0.258-0.658-0.486-1.33-0.681-2.017
				C174.84,102.921,175.068,103.593,175.326,104.251z"/>
			<path style="fill:#FDBD1D;" d="M174.44,101.442c-0.15-0.611-0.272-1.232-0.371-1.862
				C174.168,100.21,174.29,100.83,174.44,101.442z"/>
			<path style="fill:#FDBD1D;" d="M178.012,109.174c-0.397-0.55-0.768-1.121-1.115-1.707
				C177.244,108.053,177.614,108.623,178.012,109.174z"/>
		</g>
		<g>
			<rect x="83.482" y="66.463" style="fill:#FDA6B6;" width="0" height="42.732"/>
			<path style="fill:#FDA6B6;" d="M108.085,208.897c-1.375-0.929-2.347-2.304-2.347-3.966l0.486-9.145l-10.205,0.243
				c-2.76,0-4.999-2.767-4.999-5.528c0-0.768,0.178-2.671,0.488-2.671h-2.631c-2.76,0-4.999-2.239-4.999-5c0-2.76,2.239-5,4.999-5
				h19.28v-25H96.019c-2.76,0-4.999-0.195-4.999-2.957c0-0.768,0.178-2.043,0.488-2.043h-2.631c-2.76,0-4.999-1.238-4.999-4
				c0-2.76,2.239-4,4.999-4h19.28v-22H96.019c-2.76,0-4.999-3.27-4.999-6.032c0-0.767,0.347-3.787,0.657-3.787l-2.731-0.24
				c-2.76,0-5.067-1.194-5.067-3.955c0-2.76,2.239-4.986,4.999-4.986h19.28v-2h-41v115.253c0,1.661-0.255,3.214-1.63,4.143
				c-7.702,5.201-13.123,12.612-16.228,21.075c1.205-1.905,3.73-2.817,5.96-2.062c2.604,0.882,4.076,3.704,3.214,6.31
				c-0.213,0.672-4.404,14.712,10.89,25.771c0.056,0.04,0.127,0.081,0.181,0.123c0.022,0.017,5.33,3.99,13.268,4.118
				c2.762,0.044,4.967,2.955,4.922,5.716c-0.043,2.732-2.269,5.554-4.992,5.554c-0.028,0-0.054,0-0.082,0
				c-10.813,0-18.135-6.028-19.166-6.805c-14.982-10.861-16.708-25.722-15.231-34.128c-0.88,3.465-1.343,6.894-1.343,10.556
				c0,10.034,3.436,19.185,9.168,26.55c7.449,6.061,16.94,9.66,27.291,9.66c23.976,0,43.293-19.524,43.293-43.499
				C126.671,230.695,120.095,217.006,108.085,208.897z"/>
		</g>
		<path style="fill:#B74B00;" d="M115.359,202.366V32.102c0-17.7-14.4-32.102-32.1-32.102s-32.1,14.402-32.1,32.102v170.264
			C37.722,212.455,29.78,228.25,29.78,245.144c0,29.487,23.991,53.476,53.479,53.476c29.489,0,53.479-23.989,53.479-53.476
			C136.738,228.25,128.796,212.455,115.359,202.366z M83.259,288.622c-23.975,0-43.481-19.504-43.481-43.478
			c0-14.47,7.168-27.951,19.177-36.06c1.375-0.929,2.201-2.481,2.201-4.143V88.224h44.205v10.156H88.877
			c-2.76,0-4.999,2.239-4.999,4.999c0,2.761,2.239,4.999,4.999,4.999h16.484v30.096H88.877c-2.76,0-4.999,2.239-4.999,4.999
			c0,2.762,2.239,4.999,4.999,4.999h16.484v30.092H88.877c-2.76,0-4.999,2.239-4.999,4.999c0,2.761,2.239,4.999,4.999,4.999h16.484
			v16.379c0,1.661,0.826,3.214,2.201,4.143c12.009,8.11,19.177,21.59,19.177,36.06C126.74,269.118,107.234,288.622,83.259,288.622z
			 M61.157,32.102c0-12.188,9.914-22.104,22.102-22.104s22.102,9.916,22.102,22.104v26.183H88.877c-2.76,0-4.999,2.239-4.999,4.999
			c0,2.761,2.239,4.999,4.999,4.999h16.484v9.942H61.157V32.102z"/>
		<path style="fill:#B74B00;" d="M128.5,101.113h26.913c2.762,0,4.999-2.238,4.999-4.999c0-2.76-2.237-4.999-4.999-4.999H128.5
			c-2.762,0-4.999,2.239-4.999,4.999C123.501,98.875,125.738,101.113,128.5,101.113z"/>
		<path style="fill:#B74B00;" d="M263.841,91.115h-26.913c-2.762,0-4.999,2.239-4.999,4.999c0,2.761,2.237,4.999,4.999,4.999h26.913
			c2.762,0,4.999-2.238,4.999-4.999C268.84,93.354,266.602,91.115,263.841,91.115z"/>
		<path style="fill:#B74B00;" d="M228.969,121.843c-1.951-1.951-5.118-1.953-7.07,0c-1.953,1.953-1.953,5.117,0,7.07l11.486,11.488
			c0.976,0.975,2.255,1.463,3.536,1.463c1.279,0,2.558-0.488,3.535-1.463c1.953-1.953,1.953-5.118,0-7.07L228.969,121.843z"/>
		<path style="fill:#B74B00;" d="M196.17,133.578c-2.76,0-4.999,2.239-4.999,4.999v25.209c0,2.761,2.239,4.999,4.999,4.999
			c2.762,0,4.999-2.238,4.999-4.999v-25.209C201.169,135.816,198.931,133.578,196.17,133.578z"/>
		<path style="fill:#B74B00;" d="M163.372,121.843l-11.488,11.488c-1.951,1.952-1.951,5.118,0,7.07
			c0.976,0.975,2.257,1.463,3.536,1.463c1.279,0,2.558-0.488,3.535-1.463l11.488-11.488c1.953-1.953,1.953-5.118,0-7.07
			C168.489,119.89,165.325,119.89,163.372,121.843z"/>
		<path style="fill:#B74B00;" d="M196.17,63.72c-17.862,0-32.395,14.533-32.395,32.395c0,17.863,14.533,32.395,32.395,32.395
			c17.863,0,32.395-14.531,32.395-32.395C228.564,78.252,214.033,63.72,196.17,63.72z M196.17,118.511
			c-12.35,0-22.397-10.047-22.397-22.397s10.047-22.397,22.397-22.397c12.35,0,22.397,10.047,22.397,22.397
			S208.519,118.511,196.17,118.511z"/>
		<path style="fill:#B74B00;" d="M163.373,70.386c0.975,0.976,2.255,1.464,3.534,1.464c1.279,0,2.558-0.488,3.535-1.464
			c1.953-1.953,1.953-5.118,0-7.07L158.954,51.83c-1.951-1.953-5.118-1.952-7.07,0c-1.951,1.953-1.951,5.118,0.001,7.07
			L163.373,70.386z"/>
		<path style="fill:#B74B00;" d="M196.17,58.651c2.762,0,4.999-2.238,4.999-4.999V28.443c0-2.76-2.237-4.999-4.999-4.999
			c-2.76,0-4.999,2.239-4.999,4.999v25.208C191.171,56.413,193.409,58.651,196.17,58.651z"/>
		<path style="fill:#B74B00;" d="M225.433,71.85c1.279,0,2.559-0.488,3.535-1.464L240.455,58.9c1.953-1.952,1.953-5.118,0-7.07
			c-1.951-1.952-5.118-1.952-7.069,0l-11.488,11.486c-1.953,1.952-1.953,5.117,0,7.07C222.875,71.362,224.154,71.85,225.433,71.85z"
			/>
		<path style="fill:#B74B00;" d="M82.821,271.559c-7.938-0.128-13.237-4.1-13.259-4.117c-0.054-0.042-0.107-0.082-0.163-0.122
			c-15.294-11.059-11.068-25.097-10.854-25.769c0.862-2.606-0.538-5.424-3.143-6.306c-2.614-0.885-5.452,0.516-6.338,3.131
			c-2.5,7.377-2.693,24.598,14.431,37.011c1.031,0.777,8.353,5.995,19.166,6.169c0.028,0.001,0.054,0.001,0.082,0.001
			c2.723,0,4.953-2.186,4.996-4.918C87.784,273.878,85.583,271.604,82.821,271.559z"/>
	</g>
</g>
<g>
</g>
<g>
</g>
<g>
</g>
<g>
</g>
<g>
</g>
<g>
</g>
<g>
</g>
<g>
</g>
<g>
</g>
<g>
</g>
<g>
</g>
<g>
</g>
<g>
</g>
<g>
</g>
<g>
</g>
</svg>
